<?xml version="1.0" standalone="no"?><!DOCTYPE svg PUBLIC "-//W3C//DTD SVG 1.1//EN" "http://www.w3.org/Graphics/SVG/1.1/DTD/svg11.dtd"><svg t="1721188241020" class="icon" viewBox="0 0 1161 1024" version="1.1" xmlns="http://www.w3.org/2000/svg" p-id="2156" xmlns:xlink="http://www.w3.org/1999/xlink" width="226.7578125" height="200"><path d="M1074.448533 584.213232a267.624924 267.624924 0 0 0-173.401352-29.452281v-353.148207a21.805855 21.805855 0 0 0-22.133878-21.420602h-59.676464a21.812834 21.812834 0 0 0-22.138065 21.420602v393.927752a268.875599 268.875599 0 0 0-116.960453 179.485831H59.676464A59.742068 59.742068 0 0 1 0 715.349863V59.677873A59.65413 59.65413 0 0 1 59.676464 0.000014h954.968584a59.705776 59.705776 0 0 1 59.742068 59.677859v524.535359z m-797.224399 20.971141V454.954009a29.7817 29.7817 0 0 0-29.90593-29.837534h-44.270548a29.783096 29.783096 0 0 0-29.784492 29.776117v150.291781z m207.895418-222.139993a121.265232 121.265232 0 1 0-104.014012 0V605.251373h104.014012z m207.963814 222.139993V314.956568a29.778908 29.778908 0 0 0-29.837534-29.777512h-44.338943a29.776117 29.776117 0 0 0-29.77193 29.777512v290.227805z m-16.82828 225.375556a263.794731 263.794731 0 0 0 10.873615 64.141765 356.59873 356.59873 0 0 0 22.460505 55.216746H107.253762a14.892246 14.892246 0 0 1-14.889454-14.888059v-89.515393a14.89085 14.89085 0 0 1 14.889454-14.889454h569.071117zM433.209557 220.330995a52.461353 52.461353 0 1 1-52.037016 52.483686 52.196142 52.196142 0 0 1 52.037016-52.483686z m0 0" p-id="2157" fill="#cdcdcd"></path><path d="M1082.096356 860.643131c-2.354787-1.95418-3.531482-3.095979-4.840783-4.098194-13.564799-10.11986-18.405582-21.495978-15.789773-39.996477 9.682961-67.822602-45.448639-123.69679-101.014345-129.715663-70.136909-7.589197-127.841047 36.418932-136.739544 103.63155-10.685176 80.298644 60.36601 147.42472 140.315693 132.203055 8.983644-1.700136 15.047184 0.217751 20.891578 6.716795 4.144257 4.57976 9.421938 8.200576 15.912607 13.737884-18.31904 9.553148-18.580062 24.512394-17.619723 39.866664 0.957548 15.133727-1.876013 29.660262-16.924593 35.764282-16.443027 6.630253-35.066361 8.026096-50.463901-1.961159-7.065756-4.57976-10.729843-15.964253-13.521529-24.993959-2.137035-6.839629-0.348961-14.871308-0.522045-22.333484-0.262418-11.949809-5.759247-20.798056-16.836655-25.472734s-21.240539-2.65908-29.964555 5.801123c-5.365619 5.235806-10.598634 10.60003-16.138734 15.701834-10.729843 9.81417-25.683506 12.693794-36.638079 4.712365a118.324191 118.324191 0 0 1-25.415505-25.254982c-7.721802-10.425549-4.669094-26.562887 4.840783-36.68135 5.103201-5.452162 10.773114-10.425549 16.006128-15.789773 7.632468-7.805552 10.380882-17.227491 7.068548-27.565102a26.250218 26.250218 0 0 0-22.682444-18.97369c-8.634683-1.133424-17.491305-0.915673-26.257198-1.352572-18.885752-0.872402-29.83195-11.8186-30.662476-30.708539-0.261023-5.801122-0.217751-11.645516 0-17.491306 0.697921-19.45386 12.996692-31.491607 32.583156-31.92711 7.109027-0.173084 14.218054 0.262418 21.28381-0.129813 11.776725-0.697921 20.97812-6.151479 25.340128-17.228887 4.363404-11.027157 1.919284-21.240539-6.673524-29.745408-4.709573-4.712365-9.465209-9.377271-14.086844-14.177575a39.978331 39.978331 0 0 1-5.583371-6.628857c-10.337611-17.054406-4.230799-34.020874 18.929023-52.951293 13.478257-11.027157 29.833346-10.46882 42.962643 1.61499 5.5401 5.058534 10.641905 10.553967 16.182004 15.615292 8.897101 8.112638 19.365922 9.857441 30.180912 5.189744 10.337611-4.448551 16.226672-12.691002 16.095462-24.512394-0.041875-7.893491-0.085146-15.83444 0.478774-23.729326 1.136216-15.309603 11.036928-27.218933 25.996175-29.353177a107.122553 107.122553 0 0 1 29.879409 0c14.086845 1.962555 24.205309 14.392534 24.947897 28.829736 0.435503 8.288514-0.392232 16.705446 0.304293 24.947896 0.96034 11.560369 6.236625 20.4142 17.709057 24.950689 11.558974 4.57976 21.197267 1.612198 29.702137-6.628857 3.576149-3.489607 6.979214-7.196965 10.512091-10.687968a82.633889 82.633889 0 0 1 7.283508-6.846608c16.750113-12.825003 35.37205-7.416112 55.479164 16.006128 12.256895 14.305992 11.42916 31.266877-2.005826 44.576237-5.320952 5.277681-10.904323 10.380882-15.569229 16.225276-7.284903 9.072978-9.684357 19.626944-4.232195 30.313516 5.104597 10.031922 13.958427 15.136518 25.471337 15.091852 7.109027 0 14.21945-0.262418 21.286602 0.085146 16.87853 0.830526 28.960945 10.817781 31.053313 26.911848a104.235951 104.235951 0 0 1-0.043271 27.348746c-2.181702 15.964253-14.742891 26.299073-31.09798 26.955118a132.510141 132.510141 0 0 1-15.005309-0.044667c-13.039963-0.958944-23.76841 3.054104-32.362614 14.174783z m-223.922484-76.987705c10.337611 10.816385 20.454679 21.765375 31.011437 32.319343 20.063843 20.195052 46.14656 20.806431 65.465023 1.832741 19.93403-19.583673 19.629736-45.187616-1.256258-65.861443-10.643301-10.553967-21.983127-20.368137-32.056924-32.188133 26.99839-8.026096 51.422846-3.620816 73.318035 11.64412 34.720192 24.2081 47.673612 65.033708 33.500225 104.767767-2.705143 7.589197-0.436899 11.384493 4.362008 16.052191 25.952904 25.34292 51.86114 50.683049 77.505563 76.285596 14.742891 14.698224 13.958427 32.277467-1.437718 45.578452-12.388104 10.686572-27.77727 10.29434-40.339855-1.919283q-38.927262-37.944588-77.202664-76.631765c-5.932332-5.974207-10.553967-7.545926-19.277984-4.621636-34.198146 11.471035-65.338002 4.448551-91.377447-20.326261-24.467727-23.291032-31.837776-52.295247-25.906841-84.745799 1.222758-0.697921 2.442725-1.439114 3.707358-2.181702zM1089.123028 935.703177c-8.636079 1.002215-14.480472 5.494037-15.266332 14.656349-0.697921 8.330389 7.021089 15.912607 15.527354 15.912607a15.238415 15.238415 0 0 0 15.264936-16.007524c-0.523441-9.421938-6.236625-13.782551-15.525958-14.567015z m0 0" p-id="2158" fill="#cdcdcd"></path></svg>