<?xml version="1.0" standalone="no"?><!DOCTYPE svg PUBLIC "-//W3C//DTD SVG 1.1//EN" "http://www.w3.org/Graphics/SVG/1.1/DTD/svg11.dtd"><svg t="1717680544582" class="icon" viewBox="0 0 1024 1024" version="1.1" xmlns="http://www.w3.org/2000/svg" p-id="8089" data-spm-anchor-id="a313x.search_index.0.i5.2caf3a81MGLLwn" xmlns:xlink="http://www.w3.org/1999/xlink" width="200" height="200"><path d="M359.04 207.09m34.5 0l461.97 0q34.5 0 34.5 34.5l0 0q0 34.5-34.5 34.5l-461.97 0q-34.5 0-34.5-34.5l0 0q0-34.5 34.5-34.5Z" p-id="8090" fill="#dbdbdb"></path><path d="M216 216.68l39.13 6.45a4.94 4.94 0 0 1 2.58 8.48l-28.91 27.14a4.94 4.94 0 0 0-1.5 4.35l6 39.21a4.94 4.94 0 0 1-7.27 5.08l-34.75-19.12a4.94 4.94 0 0 0-4.6-0.09L151.19 306a4.94 4.94 0 0 1-7.07-5.35l7.44-39a4.94 4.94 0 0 0-1.34-4.4L122.35 229a4.94 4.94 0 0 1 2.9-8.38l39.35-5a4.94 4.94 0 0 0 3.77-2.63l18.22-35.23a4.94 4.94 0 0 1 8.87 0.17l16.88 35.89a4.94 4.94 0 0 0 3.66 2.86z" p-id="8091" fill="#dbdbdb"></path><path d="M359.04 477.5m34.5 0l461.97 0q34.5 0 34.5 34.5l0 0q0 34.5-34.5 34.5l-461.97 0q-34.5 0-34.5-34.5l0 0q0-34.5 34.5-34.5Z" p-id="8092" fill="#dbdbdb"></path><path d="M216 487.09l39.13 6.45a4.94 4.94 0 0 1 2.58 8.48l-28.91 27.14a4.94 4.94 0 0 0-1.5 4.35l6 39.21a4.94 4.94 0 0 1-7.27 5.08l-34.75-19.12a4.94 4.94 0 0 0-4.6-0.09l-35.45 17.79a4.94 4.94 0 0 1-7.07-5.35l7.44-39a4.94 4.94 0 0 0-1.34-4.4l-27.87-28.22a4.94 4.94 0 0 1 2.9-8.38l39.35-5a4.94 4.94 0 0 0 3.77-2.63l18.22-35.23a4.94 4.94 0 0 1 8.87 0.17l16.88 35.89a4.94 4.94 0 0 0 3.62 2.86z" p-id="8093" fill="#dbdbdb"></path><path d="M359.04 747.91m34.5 0l461.97 0q34.5 0 34.5 34.5l0 0q0 34.5-34.5 34.5l-461.97 0q-34.5 0-34.5-34.5l0 0q0-34.5 34.5-34.5Z" p-id="8094" fill="#dbdbdb"></path><path d="M216 757.5l39.13 6.45a4.94 4.94 0 0 1 2.58 8.48l-28.91 27.14a4.94 4.94 0 0 0-1.5 4.35l6 39.21a4.94 4.94 0 0 1-7.27 5.08l-34.75-19.12a4.94 4.94 0 0 0-4.6-0.09l-35.45 17.79a4.94 4.94 0 0 1-7.07-5.35l7.44-39a4.94 4.94 0 0 0-1.34-4.4l-27.87-28.22a4.94 4.94 0 0 1 2.9-8.38l39.35-5a4.94 4.94 0 0 0 3.77-2.63l18.22-35.23a4.94 4.94 0 0 1 8.87 0.17l16.88 35.89a4.94 4.94 0 0 0 3.62 2.86z" p-id="8095" fill="#dbdbdb"></path></svg>