<?xml version="1.0" standalone="no"?><!DOCTYPE svg PUBLIC "-//W3C//DTD SVG 1.1//EN" "http://www.w3.org/Graphics/SVG/1.1/DTD/svg11.dtd"><svg t="1718012366134" class="icon" viewBox="0 0 1024 1024" version="1.1" xmlns="http://www.w3.org/2000/svg" p-id="1929" xmlns:xlink="http://www.w3.org/1999/xlink" width="200" height="200"><path d="M640 128c0-35.3-28.7-64-64-64H384c-35.3 0-64 28.7-64 64H64v64h832v-64H640zM128 832c0 70.7 57.3 128 128 128h448c70.7 0 128-57.3 128-128V256H128v576z m576-448h64v448h-64V384z m-128 0h64v448h-64V384z m-128 0h64v448h-64V384z m-128 0h64v448h-64V384z m-128 0h64v448h-64V384z" fill="#dbdbdb" p-id="1930"></path></svg>