<?xml version="1.0" standalone="no"?><!DOCTYPE svg PUBLIC "-//W3C//DTD SVG 1.1//EN" "http://www.w3.org/Graphics/SVG/1.1/DTD/svg11.dtd"><svg t="1717040286414" class="icon" viewBox="0 0 1024 1024" version="1.1" xmlns="http://www.w3.org/2000/svg" p-id="2789" xmlns:xlink="http://www.w3.org/1999/xlink" width="200" height="200"><path d="M907.964727 357.135802c-7.675485 0-14.899471 4.063492-18.962963 10.38448-79.463845 124.613757-218.525573 207.689594-377.001764 207.689595s-297.989418-83.075838-377.001764-207.689595c-4.063492-6.320988-11.287478-10.38448-18.962963-10.38448-17.608466 0-28.444444 19.414462-18.962963 34.313933 87.13933 137.255732 240.197531 228.458554 414.92769 228.458554s327.78836-91.202822 414.92769-228.458554c9.481481-14.899471-1.354497-34.313933-18.962963-34.313933z" p-id="2790"></path><path d="M885.389771 630.744268c-11.738977 4.063492-24.380952-1.805996-28.444445-13.544973l-46.05291-125.968254c-4.063492-11.738977 1.805996-24.380952 13.544974-28.444445 11.738977-4.063492 24.380952 1.805996 28.444444 13.544974l46.05291 125.968254c4.063492 11.287478-1.805996 24.380952-13.544973 28.444444zM684.472663 547.66843c11.738977-3.160494 24.380952 4.063492 27.541446 15.802469l34.765432 129.580247c3.160494 11.738977-4.063492 24.380952-15.802469 27.541447-11.738977 3.160494-24.380952-4.063492-27.541446-15.80247l-34.765432-129.580246c-3.160494-12.190476 4.063492-24.380952 15.802469-27.541447zM532.768959 590.560847c12.190476 0 22.574956 9.932981 22.574956 22.574955v134.095239c0 12.190476-9.932981 22.574956-22.574956 22.574955-12.190476 0-22.574956-9.932981-22.574955-22.574955v-134.095239c0.451499-12.641975 10.38448-22.574956 22.574955-22.574955zM155.767196 646.998236c11.738977 4.063492 24.380952-1.805996 28.444444-13.544973L230.26455 507.485009c4.063492-11.738977-1.805996-24.380952-13.544973-28.444445-11.738977-4.063492-24.380952 1.805996-28.444445 13.544974L142.222222 618.553792c-4.063492 11.287478 2.257496 23.929453 13.544974 28.444444zM310.631393 736.395062c11.738977 3.160494 24.380952-4.063492 27.541447-15.802469l34.765432-129.580247c3.160494-11.738977-4.063492-24.380952-15.80247-27.541447-11.738977-3.160494-24.380952 4.063492-27.541446 15.80247L294.828924 708.853616c-3.160494 12.190476 3.611993 24.380952 15.802469 27.541446z" p-id="2791"></path></svg>