<?xml version="1.0" standalone="no"?><!DOCTYPE svg PUBLIC "-//W3C//DTD SVG 1.1//EN" "http://www.w3.org/Graphics/SVG/1.1/DTD/svg11.dtd"><svg t="1721015859635" class="icon" viewBox="0 0 1024 1024" version="1.1" xmlns="http://www.w3.org/2000/svg" p-id="3148" xmlns:xlink="http://www.w3.org/1999/xlink" width="200" height="200"><path d="M1004 528H659.2c-8.8 0-16-7.2-16-16V343.2c0-8.8 7.2-16 16-16h344.8c8.8 0 16 7.2 16 16V512c0 8.8-7.2 16-16 16z m-328.8-32h312.8V359.2H675.2V496z" fill="#cdcdcd" p-id="3149"></path><path d="M1004 974.4H659.2c-8.8 0-16-7.2-16-16V512c0-8.8 7.2-16 16-16h344.8c8.8 0 16 7.2 16 16v445.6c0 9.6-7.2 16.8-16 16.8z m-328.8-32h312.8V528H675.2v414.4zM490.4 880c-8.8 0-16-7.2-16-16v-70.4H191.2v70.4c0 8.8-7.2 16-16 16s-16-7.2-16-16V777.6c0-8.8 7.2-16 16-16h315.2c8.8 0 16 7.2 16 16V864c0 8.8-7.2 16-16 16z" fill="#cdcdcd" p-id="3150"></path><path d="M332.8 974.4c-34.4 0-62.4-28.8-62.4-63.2 0-35.2 28-63.2 62.4-63.2s62.4 28.8 62.4 63.2c-0.8 35.2-28.8 63.2-62.4 63.2z m0-94.4c-16.8 0-30.4 14.4-30.4 31.2 0 17.6 13.6 31.2 30.4 31.2 16.8 0 30.4-14.4 30.4-31.2-0.8-17.6-14.4-31.2-30.4-31.2zM490.4 974.4c-34.4 0-62.4-28.8-62.4-63.2 0-35.2 28-63.2 62.4-63.2s62.4 28.8 62.4 63.2c-0.8 35.2-28 63.2-62.4 63.2z m0-94.4c-16.8 0-30.4 14.4-30.4 31.2 0 17.6 13.6 31.2 30.4 31.2 16.8 0 30.4-14.4 30.4-31.2-0.8-17.6-14.4-31.2-30.4-31.2zM175.2 974.4c-34.4 0-62.4-28.8-62.4-63.2 0-35.2 28-63.2 62.4-63.2s62.4 28.8 62.4 63.2c-0.8 35.2-28.8 63.2-62.4 63.2z m0-94.4c-16.8 0-30.4 14.4-30.4 31.2 0 17.6 13.6 31.2 30.4 31.2s30.4-14.4 30.4-31.2c-0.8-17.6-14.4-31.2-30.4-31.2zM472.8 524h-280c-19.2 0-36-8-48.8-24-20.8-24.8-29.6-64.8-23.2-106.4l52-278.4c5.6-36.8 36.8-65.6 71.2-65.6h178.4c34.4 0 65.6 28.8 71.2 65.6l51.2 277.6c6.4 42.4-1.6 82.4-23.2 107.2-13.6 15.2-30.4 24-48.8 24zM243.2 81.6c-18.4 0-36 17.6-40 39.2L152 398.4c-4.8 32 0.8 63.2 16 80 7.2 8 15.2 12.8 24.8 12.8h280c9.6 0 17.6-4 24.8-12.8 15.2-17.6 20.8-48 16-80.8L462.4 120c-3.2-21.6-21.6-39.2-40-39.2H243.2z" fill="#cdcdcd" p-id="3151"></path><path d="M465.6 414.4c-4 0-7.2-2.4-8-6.4l-50.4-270.4H251.2c-4.8 0-8-3.2-8-8s3.2-8 8-8h163.2c4 0 7.2 2.4 8 6.4l51.2 277.6c0.8 4-2.4 8.8-6.4 9.6-0.8-0.8-0.8-0.8-1.6-0.8zM332.8 608.8c-8.8 0-16-7.2-16-16v-79.2c0-8.8 7.2-16 16-16s16 7.2 16 16v79.2c0 8.8-7.2 16-16 16zM332.8 880c-8.8 0-16-7.2-16-16V669.6c0-8.8 7.2-16 16-16s16 7.2 16 16V864c0 8.8-7.2 16-16 16z" fill="#cdcdcd" p-id="3152"></path><path d="M552.8 685.6h-440c-8.8 0-16-7.2-16-16v-76.8c0-8.8 7.2-16 16-16h440c8.8 0 16 7.2 16 16v76.8c0 8.8-7.2 16-16 16z m-424-32h408v-44.8h-408v44.8z" fill="#cdcdcd" p-id="3153"></path><path d="M20 974.4c-8.8 0-16-7.2-16-16V343.2c0-8.8 7.2-16 16-16h126.4c8.8 0 16 7.2 16 16s-7.2 16-16 16H36v599.2c0 8.8-7.2 16-16 16zM1004 974.4c-8.8 0-16-7.2-16-16V359.2H519.2c-8.8 0-16-7.2-16-16s7.2-16 16-16h484.8c8.8 0 16 7.2 16 16v615.2c0 8.8-7.2 16-16 16zM723.2 787.2c-4.8 0-8-3.2-8-8v-88c0-4.8 3.2-8 8-8s8 3.2 8 8v88c0 4-4 8-8 8z" fill="#cdcdcd" p-id="3154"></path><path d="M875.2 435.2h-88c-4.8 0-8-3.2-8-8s3.2-8 8-8h88c4.8 0 8 3.2 8 8s-3.2 8-8 8z" fill="#cdcdcd" p-id="3155"></path></svg>