<?xml version="1.0" standalone="no"?><!DOCTYPE svg PUBLIC "-//W3C//DTD SVG 1.1//EN" "http://www.w3.org/Graphics/SVG/1.1/DTD/svg11.dtd"><svg t="1717319961319" class="icon" viewBox="0 0 3481 1024" version="1.1" xmlns="http://www.w3.org/2000/svg" p-id="10342" xmlns:xlink="http://www.w3.org/1999/xlink" width="679.8828125" height="200"><path d="M303.786667 240.64L278.186667 37.888H158.378667l65.536 202.752h79.872z m496.64 745.472l92.16-875.52h-423.936L506.538667 37.888H393.898667l-88.064 239.616h63.488L291.498667 452.608h73.728l39.936-65.536h65.536l-10.24 100.352H289.450667l-9.216 89.088H451.242667l-19.456 195.584h-63.488l15.36-146.432H299.690667L275.114667 860.16h384l24.576-234.496h-83.968L584.362667 772.096h-61.44l20.48-195.584h168.96L723.626667 487.424H552.618667l11.264-100.352h142.336l8.192-86.016h-256l25.6-40.96H391.850667l25.6-50.176h366.592l-71.68 677.888h-69.632l12.288 98.304h145.408z m-540.672-503.808l-26.624-200.704h-116.736l57.344 200.704h86.016z m-98.304 485.376l102.4-407.552h-83.968l-131.072 407.552h112.64z m1193.984 17.408l39.936-379.904h310.272L1637.034667 405.504h-110.592l47.104 102.4h-347.136l393.216-279.552h-159.744l-84.992 60.416h-165.888l139.264-125.952h166.912l235.52-27.648 10.24-96.256-235.52 26.624h-479.232l-10.24 97.28h174.08L1018.538667 356.352l-1.024 27.648h229.376l-265.216 194.56-3.072 26.624h311.296l-29.696 283.648h-71.68l14.336 96.256h152.576z m-358.4-12.288l171.008-311.296h-118.784l-135.168 311.296h82.944z m694.272 0L1618.602667 661.504h-119.808l106.496 311.296h86.016z m946.176-784.384l10.24-96.256h-331.776l4.096-55.296h-106.496l-7.168 55.296h-332.8l-9.216 96.256h773.12z m-727.04 799.744l63.488-594.944h509.952l-53.248 502.784H2341.546667l15.36 92.16h165.888l71.68-690.176H2458.282667l49.152-81.92h-117.76l-32.768 81.92h-235.52l-16.384-81.92h-116.736l33.792 81.92h-139.264l-71.68 690.176h99.328z m444.416-121.856l29.696-283.648h65.536L2390.698667 430.08h-114.688l76.8 136.192H2069.162667L2174.634667 430.08H2058.922667l-90.112 152.576h64.512l-29.696 283.648h351.232z m-82.944-90.112h-165.888l12.288-119.808h165.888l-12.288 119.808z m1139.712-354.304l36.864-359.424H2831.018667l-37.888 359.424h618.496zM3316.394667 322.56h-407.552l17.408-162.816h406.528l-16.384 162.816z m-308.224 646.144l48.128-456.704h-334.848l-48.128 456.704h334.848z m407.552 0l48.128-456.704h-335.872l-48.128 456.704h335.872z m-487.424-99.328H2777.770667l26.624-257.024h148.48l-24.576 257.024z m404.48 0h-148.48l24.576-257.024h150.528l-26.624 257.024z" fill="#7388B7" p-id="10343"></path></svg>