<?xml version="1.0" standalone="no"?><!DOCTYPE svg PUBLIC "-//W3C//DTD SVG 1.1//EN" "http://www.w3.org/Graphics/SVG/1.1/DTD/svg11.dtd"><svg t="1719286849813" class="icon" viewBox="0 0 1024 1024" version="1.1" xmlns="http://www.w3.org/2000/svg" p-id="4203" xmlns:xlink="http://www.w3.org/1999/xlink" width="200" height="200"><path d="M499.8912 0.384c275.8912 0 499.5328 223.6416 499.5328 499.5072 0 275.8912-223.6416 499.5328-499.5328 499.5328C224.0256 999.424 0.384 775.7824 0.384 499.8912 0.384 224.0256 224.0256 0.384 499.8912 0.384z m0 99.9168c-220.672 0-399.616 178.8928-399.616 399.616 0 220.672 178.944 399.616 399.616 399.616 220.6976 0 399.616-178.944 399.616-399.616 0-220.7232-178.9184-399.616-399.616-399.616z m0 149.8368c33.3056 0 49.9712 16.64 49.9712 49.9712v199.7824h199.808c31.7696 0 48.384 15.1808 49.8432 45.5168l0.1024 4.4544c0 33.28-16.64 49.92-49.9456 49.92h-249.7792c-33.28 0-49.92-16.64-49.92-49.92v-249.7536c0-31.7952 15.1552-48.4096 45.4912-49.8688l4.4288-0.1024z" fill="#dbdbdb" p-id="4204"></path></svg>