<?xml version="1.0" standalone="no"?><!DOCTYPE svg PUBLIC "-//W3C//DTD SVG 1.1//EN" "http://www.w3.org/Graphics/SVG/1.1/DTD/svg11.dtd"><svg t="1717035055080" class="icon" viewBox="0 0 1559 1024" version="1.1" xmlns="http://www.w3.org/2000/svg" p-id="2337" xmlns:xlink="http://www.w3.org/1999/xlink" width="304.4921875" height="200"><path d="M831.917242 1023.906962a156.006905 156.006905 0 0 1-155.839436-156.174375V433.85699a138.70175 138.70175 0 0 0-138.552888-138.832004v-0.427977c-2.884193 0.167469-5.73117 0.427977-8.652578 0.427977a147.521797 147.521797 0 0 1 0-295.024986c2.921408 0 5.768385 0.260508 8.652578 0.446585V0a433.410405 433.410405 0 0 1 432.945213 433.85699v590.049972h-138.552889z m-519.526812 0H173.856149a156.025513 156.025513 0 0 1-155.858043-156.174375V590.049972h0.446584c-0.167469-2.884193-0.446585-5.749777-0.446584-8.671185a147.205466 147.205466 0 1 1 294.392324 0c0 2.921408-0.260508 5.786993-0.427977 8.671185h0.427977v433.85699z m-155.858044-659.45667a156.192982 156.192982 0 1 1 155.858044-156.192982 156.025513 156.025513 0 0 1-155.858044 156.192982z m1264.188113 659.45667a156.025513 156.025513 0 0 1-155.858044-156.174375V433.85699a138.683142 138.683142 0 0 0-138.534281-138.832004v-0.427977c-2.884193 0.167469-5.73117 0.427977-8.652577 0.427977a147.521797 147.521797 0 0 1 0-295.024986c2.921408 0 5.768385 0.260508 8.652577 0.446585V0a433.410405 433.410405 0 0 1 432.945213 433.85699v590.049972h-138.552888z" fill="" p-id="2338"></path></svg>