<?xml version="1.0" standalone="no"?><!DOCTYPE svg PUBLIC "-//W3C//DTD SVG 1.1//EN" "http://www.w3.org/Graphics/SVG/1.1/DTD/svg11.dtd"><svg t="1718689922015" class="icon" viewBox="0 0 1024 1024" version="1.1" xmlns="http://www.w3.org/2000/svg" p-id="3849" xmlns:xlink="http://www.w3.org/1999/xlink" width="200" height="200"><path d="M274.285714 457.142857m22.125715 0l705.462857 0q22.125714 0 22.125714 22.125714l0 65.462858q0 22.125714-22.125714 22.125714l-705.462857 0q-22.125714 0-22.125715-22.125714l0-65.462858q0-22.125714 22.125715-22.125714Z" p-id="3850"></path><path d="M274.285714 128m22.125715 0l705.462857 0q22.125714 0 22.125714 22.125714l0 65.462857q0 22.125714-22.125714 22.125715l-705.462857 0q-22.125714 0-22.125715-22.125715l0-65.462857q0-22.125714 22.125715-22.125714Z" p-id="3851"></path><path d="M274.285714 786.285714m22.125715 0l705.462857 0q22.125714 0 22.125714 22.125715l0 65.462857q0 22.125714-22.125714 22.125714l-705.462857 0q-22.125714 0-22.125715-22.125714l0-65.462857q0-22.125714 22.125715-22.125715Z" p-id="3852"></path><path d="M73.142857 182.857143m-73.142857 0a73.142857 73.142857 0 1 0 146.285714 0 73.142857 73.142857 0 1 0-146.285714 0Z" p-id="3853"></path><path d="M73.142857 512m-73.142857 0a73.142857 73.142857 0 1 0 146.285714 0 73.142857 73.142857 0 1 0-146.285714 0Z" p-id="3854"></path><path d="M73.142857 841.142857m-73.142857 0a73.142857 73.142857 0 1 0 146.285714 0 73.142857 73.142857 0 1 0-146.285714 0Z" p-id="3855"></path></svg>