<?xml version="1.0" standalone="no"?><!DOCTYPE svg PUBLIC "-//W3C//DTD SVG 1.1//EN" "http://www.w3.org/Graphics/SVG/1.1/DTD/svg11.dtd"><svg t="1717040314302" class="icon" viewBox="0 0 1024 1024" version="1.1" xmlns="http://www.w3.org/2000/svg" p-id="4633" xmlns:xlink="http://www.w3.org/1999/xlink" width="200" height="200"><path d="M628.86337 480.622194a134.021691 134.021691 0 0 1-29.418845 164.682314 135.529887 135.529887 0 0 1-180.486758-3.305387 134.066847 134.066847 0 0 1 155.63314-215.541017 22.352 22.352 0 0 0 26.506311-3.720817 22.559716 22.559716 0 0 0-5.676053-35.853512 178.847612 178.847612 0 1 0 73.066205 72.998472 22.537138 22.537138 0 0 0-35.785778-5.518009 22.171378 22.171378 0 0 0-3.838222 26.257956z" p-id="4634"></path><path d="M150.945993 641.524988l0.912143-0.916658a21.832711 21.832711 0 0 0 1.756551-28.619592 442.71862 442.71862 0 0 1-34.986525-54.547912 22.478436 22.478436 0 0 1 0.009031-21.272782 446.624576 446.624576 0 0 1 695.156242-117.043202 22.18944 22.18944 0 0 0 30.800605-0.288995l0.451555-0.451556a22.1488 22.1488 0 0 0-0.921173-32.024321 491.260843 491.260843 0 0 0-771.338181 141.029834 43.27257 43.27257 0 0 0-0.031609 38.788623 485.756381 485.756381 0 0 0 45.336179 72.804303 21.778525 21.778525 0 0 0 32.855182 2.542258zM873.868387 452.792825l-1.2192 1.2192a21.629511 21.629511 0 0 0-1.761067 28.32608 441.607794 441.607794 0 0 1 34.480783 53.843486 22.487467 22.487467 0 0 1-0.009031 21.277298A446.606514 446.606514 0 0 1 210.953212 675.165877a22.171378 22.171378 0 0 0-30.741903 0.329636l-0.48768 0.48768a22.130738 22.130738 0 0 0 0.948267 32.028836 491.278905 491.278905 0 0 0 770.543443-141.7749 43.268054 43.268054 0 0 0 0.027094-38.788623 485.937003 485.937003 0 0 0-44.803343-72.104392 21.57984 21.57984 0 0 0-32.570703-2.546774z" p-id="4635"></path></svg>