<?xml version="1.0" standalone="no"?><!DOCTYPE svg PUBLIC "-//W3C//DTD SVG 1.1//EN" "http://www.w3.org/Graphics/SVG/1.1/DTD/svg11.dtd"><svg t="1722931932600" class="icon" viewBox="0 0 1024 1024" version="1.1" xmlns="http://www.w3.org/2000/svg" p-id="3684" xmlns:xlink="http://www.w3.org/1999/xlink" width="200" height="200"><path d="M747.52 136.8576a110.592 110.592 0 0 0-105.6256-78.2848H377.7536a110.7456 110.7456 0 0 0-105.6768 78.336 185.8048 185.8048 0 0 0-171.4176 185.0368v457.8816a185.8048 185.8048 0 0 0 185.6 185.6h448.0512a185.856 185.856 0 0 0 185.6512-185.6V321.9456A185.8048 185.8048 0 0 0 747.52 136.8576z m-369.7664-16.8448h264.0896a49.0496 49.0496 0 0 1 48.9472 47.36v4.5056a19.8144 19.8144 0 0 1 0 2.4576 20.48 20.48 0 0 1-0.3584 2.4576 17.408 17.408 0 0 1-0.4096 2.3552c0 0.8192-0.4096 1.6384-0.6144 2.4576s-0.3584 1.4848-0.5632 2.2016l-0.9216 2.4064c-0.256 0.7168-0.4608 1.3824-0.768 2.048s-0.7168 1.5872-1.1264 2.3552l-0.9216 1.8944-1.3824 2.2528-1.0752 1.792-1.6384 2.1504c-0.4096 0.512-0.768 1.0752-1.2288 1.5872s-1.2288 1.3824-1.8432 2.048-0.8192 0.9728-1.28 1.4336l-2.0992 1.8432-1.3824 1.28c-0.768 0.6144-1.536 1.1264-2.304 1.6896l-1.4848 1.1264-2.4064 1.4848-1.6384 0.9728-2.56 1.2288-1.6896 0.8192-2.7648 0.9728-1.7408 0.6656c-0.9728 0.3072-1.9968 0.512-3.0208 0.768l-1.6384 0.4096c-1.1264 0-2.2528 0.3584-3.3792 0.512h-1.4848c-1.6384 0-3.2768 0.256-5.12 0.256h-264.192c-1.6384 0-3.328 0-5.12-0.256h-1.6896l-3.1744-0.512-1.6896-0.4096c-0.9728-0.256-1.9968-0.4608-2.9696-0.768l-1.5872-0.8192-2.7648-0.9728-1.7408-0.8704-2.5088-1.1776-1.6896-1.024-2.3552-1.0752-1.536-1.1776a24.576 24.576 0 0 1-2.2016-1.6384l-1.4848-1.3312c-0.6656-0.5632-1.3824-1.1776-1.9968-1.792l-1.3824-1.4848-1.792-1.9968a19.5072 19.5072 0 0 1-1.2288-1.6384 20.48 20.48 0 0 1-1.5872-2.0992l-1.1264-2.2016c-0.4608-0.768-0.9216-1.4848-1.3312-2.2528s-0.6656-1.28-0.9728-1.9456-0.768-1.4848-1.1264-2.304-0.512-1.3824-0.768-2.0992-0.6144-1.536-0.8704-2.3552-0.4096-1.4848-0.6144-2.2016-0.4608-1.6384-0.6144-2.4576 0-1.5872-0.4096-2.3552 0-1.6384-0.3584-2.4576 0-1.6384 0-2.4576v-2.5088-1.4848a1.3824 1.3824 0 0 1 0-0.4608 48.9984 48.9984 0 0 1 48.6912-47.2064z m480.768 659.8144a124.3136 124.3136 0 0 1-124.2112 124.16H286.2592a124.3136 124.3136 0 0 1-124.16-124.16V321.9456A124.3136 124.3136 0 0 1 271.36 198.656c0 0.6144 0.4096 1.1776 0.5632 1.792s0.768 2.3552 1.1264 3.4816c0.7168 2.048 1.4336 4.096 2.2528 6.144 0.4608 1.1264 0.9216 2.2528 1.4336 3.3792 0.8704 2.048 1.8432 4.0448 2.8672 5.9904l1.536 2.9696c1.4336 2.56 2.9184 5.12 4.5056 7.424l0.6144 0.9728c1.8432 2.7136 3.84 5.12 5.888 7.8336l1.9968 2.3552c1.4848 1.6896 3.0208 3.3792 4.5568 5.12l2.6112 2.56c1.536 1.4336 3.072 2.8672 4.6592 4.2496l2.8672 2.3552c1.6896 1.3824 3.4816 2.6624 5.12 3.9424l2.7136 1.8944c2.5088 1.6896 5.12 3.2768 7.7312 4.7616l0.6656 0.3584q4.352 2.4064 8.9088 4.3008l2.9184 1.1776c2.1504 0.8192 4.3008 1.6384 6.4512 2.3552 1.1776 0.4096 2.4064 0.7168 3.584 1.0752 2.0992 0.6144 4.1984 1.1264 6.3488 1.6384 1.2288 0.256 2.4064 0.5632 3.6864 0.768 2.2528 0.4608 4.608 0.768 6.912 1.0752l3.2768 0.4096a101.9904 101.9904 0 0 0 10.24 0.5632h264.0896a100.4032 100.4032 0 0 0 10.24-0.5632l3.2768-0.4096c2.3552-0.3072 4.6592-0.6144 6.9632-1.0752l3.6864-0.768c2.0992-0.512 4.2496-1.024 6.3488-1.6384l3.5328-1.0752c2.2016-0.7168 4.352-1.536 6.4512-2.3552l2.9184-1.1776c3.072-1.3312 6.0416-2.7136 8.96-4.3008h0.3584c2.7648-1.536 5.4272-3.1744 8.0384-5.12l2.6112-1.8432c1.8432-1.28 3.6352-2.6112 5.376-4.0448 0.9728-0.7168 1.8944-1.536 2.816-2.304s3.1744-2.816 4.7104-4.3008l2.56-2.5088c1.5872-1.6384 3.072-3.328 4.5568-5.12 0.6656-0.768 1.3824-1.4848 1.9968-2.304a87.04 87.04 0 0 0 5.888-7.8336l0.4096-0.6656c1.6896-2.5088 3.2768-5.12 4.7616-7.7824 0.512-0.9216 0.9728-1.8944 1.4848-2.8672 1.024-1.9968 1.9968-3.9936 2.9184-6.0928 0.4608-1.1264 0.9728-2.2528 1.3824-3.3792 0.8192-1.9968 1.5872-4.0448 2.2528-6.0928 0.4096-1.1776 0.768-2.3552 1.1264-3.5328s0.4608-1.2288 0.6144-1.8432a124.3648 124.3648 0 0 1 110.2336 123.392z" fill="#bfbfbf" p-id="3685"></path><path d="M411.904 378.7264m45.1072 0l233.1648 0q45.1072 0 45.1072 45.1072l0 0q0 45.1072-45.1072 45.1072l-233.1648 0q-45.1072 0-45.1072-45.1072l0 0q0-45.1072 45.1072-45.1072Z" fill="#bfbfbf" p-id="3686"></path><path d="M284.3136 378.7264m45.1072 0l0 0q45.1072 0 45.1072 45.1072l0 0q0 45.1072-45.1072 45.1072l0 0q-45.1072 0-45.1072-45.1072l0 0q0-45.1072 45.1072-45.1072Z" fill="#bfbfbf" p-id="3687"></path><path d="M411.904 540.672m45.1072 0l233.1648 0q45.1072 0 45.1072 45.1072l0 0q0 45.1072-45.1072 45.1072l-233.1648 0q-45.1072 0-45.1072-45.1072l0 0q0-45.1072 45.1072-45.1072Z" fill="#bfbfbf" p-id="3688"></path><path d="M284.3136 540.672m45.1072 0l0 0q45.1072 0 45.1072 45.1072l0 0q0 45.1072-45.1072 45.1072l0 0q-45.1072 0-45.1072-45.1072l0 0q0-45.1072 45.1072-45.1072Z" fill="#bfbfbf" p-id="3689"></path><path d="M411.904 702.5664m45.1072 0l233.1648 0q45.1072 0 45.1072 45.1072l0 0q0 45.1072-45.1072 45.1072l-233.1648 0q-45.1072 0-45.1072-45.1072l0 0q0-45.1072 45.1072-45.1072Z" fill="#bfbfbf" p-id="3690"></path><path d="M284.3136 702.5664m45.1072 0l0 0q45.1072 0 45.1072 45.1072l0 0q0 45.1072-45.1072 45.1072l0 0q-45.1072 0-45.1072-45.1072l0 0q0-45.1072 45.1072-45.1072Z" fill="#bfbfbf" p-id="3691"></path></svg>