<?xml version="1.0" standalone="no"?><!DOCTYPE svg PUBLIC "-//W3C//DTD SVG 1.1//EN" "http://www.w3.org/Graphics/SVG/1.1/DTD/svg11.dtd"><svg t="1723623926181" class="icon" viewBox="0 0 1024 1024" version="1.1" xmlns="http://www.w3.org/2000/svg" p-id="2455" xmlns:xlink="http://www.w3.org/1999/xlink" width="200" height="200"><path d="M816.03 489.897h43.572a27.74 27.74 0 0 1 0 55.48H816.03a27.74 27.74 0 0 1-27.74-27.74 27.73 27.73 0 0 1 27.74-27.74z m-71.137 194.816l30.813 30.812a27.735 27.735 0 1 1-39.23 39.23l-30.812-30.813a27.735 27.735 0 1 1 39.23-39.229zM538.62 753.905a27.74 27.74 0 0 1 27.74 27.74v43.571a27.74 27.74 0 0 1-55.48 0v-43.571a27.74 27.74 0 0 1 27.74-27.74zM775.7 319.759l-30.807 30.807a27.735 27.735 0 1 1-39.229-39.229l30.807-30.807a27.735 27.735 0 1 1 39.23 39.23zM426.783 637.763L508.508 556a68.859 68.859 0 0 0 20.158-48.68V311.89a42.066 42.066 0 0 1 84.131 0v228.89a68.845 68.845 0 0 1-19.911 48.43 525781.702 525781.702 0 0 0-106.599 107.765c-16.363 16.548-43.033 16.594-59.494 0.144a41.969 41.969 0 0 1-0.01-59.356z" fill="#bfbfbf" p-id="2456"></path><path d="M561.541 98.964c0 20.48 15.498 37.725 35.886 39.675 196.065 18.75 348.467 189.507 337.654 392.745C925 720.901 771.779 874.312 582.267 884.598 383.81 895.37 216.335 750.408 190.904 561.09l28.616 28.226a40.049 40.049 0 0 0 56.443-0.194 40.044 40.044 0 0 0 0-56.638L175.549 432.072a38.538 38.538 0 0 0-54.466-0.036L20.255 532.608a39.895 39.895 0 0 0 56.376 56.448l33.28-33.28c22.538 229.366 216.479 409.216 451.645 409.216 250.266 0 453.909-203.633 453.909-453.919-0.02-235.637-180.495-429.931-410.47-451.88-23.327-2.238-43.454 16.332-43.454 39.771z" fill="#bfbfbf" p-id="2457"></path><path d="M567.962 589.45c-24.663 0-44.836-20.178-44.836-44.836V307.886c0-24.658 20.178-44.836 44.836-44.836s44.835 20.178 44.835 44.836v236.728c0 24.658-20.177 44.836-44.835 44.836z" fill="#bfbfbf" p-id="2458"></path></svg>