<?xml version="1.0" standalone="no"?><!DOCTYPE svg PUBLIC "-//W3C//DTD SVG 1.1//EN" "http://www.w3.org/Graphics/SVG/1.1/DTD/svg11.dtd"><svg t="1717676923676" class="icon" viewBox="0 0 1024 1024" version="1.1" xmlns="http://www.w3.org/2000/svg" p-id="1483" xmlns:xlink="http://www.w3.org/1999/xlink" width="200" height="200"><path d="M407.754955 99.632432h207.26006c27.675676 0 49.816216-22.140541 49.816216-49.816216S642.075676 0 615.015015 0H407.754955c-27.675676 0-49.816216 22.755556-49.816216 49.816216s22.755556 49.816216 49.816216 49.816216z" fill="#dbdbdb" p-id="1484"></path><path d="M870.246246 102.092492H702.962162c-0.615015 0-1.845045 0.615015-1.845045 1.230031-17.835435 28.290691-49.816216 47.971171-85.487087 47.971171H407.754955c-36.285886 0-67.651652-19.065465-85.487087-47.971171-0.615015-0.615015-1.23003-1.23003-1.845045-1.230031H153.138739c-28.290691 0-51.046246 22.755556-51.046247 51.046247v819.815015c0 28.290691 22.755556 51.046246 51.046247 51.046246H870.861261c28.290691 0 51.046246-22.755556 51.046247-51.046246V153.753754c0-28.290691-23.370571-51.661261-51.661262-51.661262zM511.692492 257.076276h153.753754c28.290691 0 51.046246 22.755556 51.046246 51.046247s-22.755556 51.046246-51.046246 51.046246h-153.753754c-28.290691 0-51.046246-22.755556-51.046246-51.046246s22.755556-51.046246 51.046246-51.046247z m0 153.753754h153.753754c28.290691 0 51.046246 22.755556 51.046246 51.046246 0 28.290691-22.755556 51.046246-51.046246 51.046247h-153.753754c-28.290691 0-51.046246-22.755556-51.046246-51.046247s22.755556-51.046246 51.046246-51.046246z m-153.753753-153.138739c28.290691 0 51.046246 22.755556 51.046246 51.046247s-22.755556 51.046246-51.046246 51.046246-51.046246-22.755556-51.046247-51.046246 22.755556-51.046246 51.046247-51.046247z m0 153.753754c28.290691 0 51.046246 22.755556 51.046246 51.046246 0 28.290691-22.755556 51.046246-51.046246 51.046247s-51.046246-22.755556-51.046247-51.046247 22.755556-51.046246 51.046247-51.046246z m111.932732 553.513514c-19.68048 0-35.055856-15.99039-35.055855-35.055856 0-19.68048 15.99039-35.055856 35.055855-35.055856 19.68048 0 35.055856 15.99039 35.055856 35.055856 0.615015 19.68048-15.375375 35.055856-35.055856 35.055856z m165.43904 0c-19.68048 0-35.055856-15.99039-35.055856-35.055856 0-19.68048 15.99039-35.055856 35.055856-35.055856 19.68048 0 35.055856 15.99039 35.055855 35.055856 0 19.68048-15.99039 35.055856-35.055855 35.055856z m118.082882-273.066667l-28.29069 141.453453c-4.305105 22.140541-23.985586 38.130931-46.126126 38.130931H426.205405c-22.755556 0-41.821021-15.99039-46.126126-38.130931L354.248649 702.962162c-0.615015-0.615015-0.615015-1.845045-1.23003-2.46006l-30.750751-112.547748h-28.905706c-12.915315 0-23.370571-10.455255-23.37057-23.37057S280.446847 541.213213 293.362162 541.213213H340.718318c8.61021 0 16.605405 4.92012 20.910511 12.915316 0.615015 1.845045 1.23003 3.075075 1.845045 4.92012l21.525525 78.106907c1.23003-0.615015 2.46006-0.615015 4.305106-1.23003 3.075075-0.615015 6.15015-0.615015 9.225225-0.615015h309.352552c25.830631 0 47.356156 20.910511 47.356156 47.356156l-1.845045 9.225225z" fill="#dbdbdb" p-id="1485"></path></svg>