<?xml version="1.0" standalone="no"?><!DOCTYPE svg PUBLIC "-//W3C//DTD SVG 1.1//EN" "http://www.w3.org/Graphics/SVG/1.1/DTD/svg11.dtd"><svg t="1720488603749" class="icon" viewBox="0 0 1024 1024" version="1.1" xmlns="http://www.w3.org/2000/svg" p-id="2115" xmlns:xlink="http://www.w3.org/1999/xlink" width="200" height="200"><path d="M363.52 488.448H193.024c-69.632 0-126.464-56.32-126.464-125.952V192c0-69.632 56.832-125.952 125.952-125.952H363.52c69.632 0 125.952 56.832 125.952 125.952v170.496c0 69.632-56.32 125.952-125.952 125.952zM193.024 130.56c-16.384 0-31.744 6.144-43.008 17.92s-17.92 27.136-17.92 43.008v170.496c0 16.384 6.656 31.744 17.92 43.008s27.136 17.92 43.008 17.92H363.52c33.792 0 61.44-27.648 61.44-61.44V192c0-16.384-6.656-31.744-17.92-43.008-11.776-11.776-27.136-17.92-43.008-17.92H193.024zM363.52 958.464H193.024c-69.632 0-125.952-56.832-125.952-125.952v-170.496c0-69.632 56.832-125.952 125.952-125.952H363.52c69.632 0 125.952 56.832 125.952 125.952v170.496c0 69.12-56.32 125.952-125.952 125.952z m-170.496-357.888c-16.384 0-31.744 6.656-43.008 17.92-11.776 11.776-17.92 27.136-17.92 43.008v170.496c0 16.384 6.656 31.744 17.92 43.008 11.776 11.776 27.136 17.92 43.008 17.92H363.52c33.792 0 61.44-27.648 61.44-61.44v-170.496c0-16.384-6.656-31.744-17.92-43.008-11.776-11.776-27.136-17.92-43.008-17.92l-171.008 0.512z m637.952-112.128H660.48c-69.632 0-125.952-56.832-125.952-125.952V192c0-69.632 56.832-125.952 125.952-125.952h170.496c69.632 0 125.952 56.832 125.952 125.952v170.496c0.512 69.632-56.32 125.952-125.952 125.952zM660.48 130.56c-16.384 0-31.744 6.144-43.008 17.92-11.776 11.776-17.92 27.136-17.92 43.008v170.496c0 16.384 6.656 31.744 17.92 43.008 11.776 11.776 27.136 17.92 43.008 17.92h170.496c33.792 0 61.44-27.648 61.44-61.44V192c0-16.384-6.656-31.744-17.92-43.008-11.776-11.776-27.136-17.92-43.008-17.92H660.48z m-51.712 825.856c-17.92 0-32.256-14.848-32.256-32.256v-252.416c0-17.92 14.848-32.256 32.256-32.256 17.92 0 32.256 14.848 32.256 32.256v252.416c0 17.92-14.336 32.256-32.256 32.256z m143.36 0c-17.92 0-32.256-14.848-32.256-32.256v-196.608c0-17.92 14.848-32.256 32.256-32.256s32.256 14.848 32.256 32.256v196.608c0.512 17.92-14.336 32.256-32.256 32.256z m143.872 0c-17.92 0-32.256-14.848-32.256-32.256v-339.968c0-17.92 14.848-32.256 32.256-32.256s32.256 14.848 32.256 32.256v339.968c0 17.92-14.336 32.256-32.256 32.256z" p-id="2116" fill="#dbdbdb"></path></svg>