<?xml version="1.0" standalone="no"?><!DOCTYPE svg PUBLIC "-//W3C//DTD SVG 1.1//EN" "http://www.w3.org/Graphics/SVG/1.1/DTD/svg11.dtd"><svg t="1717677091597" class="icon" viewBox="0 0 1024 1024" version="1.1" xmlns="http://www.w3.org/2000/svg" p-id="4326" xmlns:xlink="http://www.w3.org/1999/xlink" width="200" height="200"><path d="M773.582155 1022.99575a248.994961 248.994961 0 0 1-177.00401-73.270878c-31.505887-31.505887-49.739919-86.463968-54.485493-163.436788a173.65651 173.65651 0 0 0 41.469623 95.876352 211.699868 211.699868 0 1 0 299.424072-299.305924 174.16848 174.16848 0 0 0-96.486778-41.607462c77.346952 4.686501 132.521636 23.03868 164.047214 54.544566a250.235506 250.235506 0 0 1-176.925246 427.29859z m-523.293088 0a250.255197 250.255197 0 0 1-176.925246-427.29859c36.980035-36.960343 105.820397-55.726037 204.591353-55.726037a1062.831399 1062.831399 0 0 1 186.475467 18.490017v0.118148a1069.231033 1069.231033 0 0 1 17.997738 158.789669 583.567788 583.567788 0 0 1-8.211222 129.843636 195.828778 195.828778 0 0 1-47.042227 102.394132 248.876814 248.876814 0 0 1-176.885863 73.389025z m18.214341-411.78194c-67.402907 0-114.38606 12.917414-139.669535 38.41749a174.050333 174.050333 0 0 0 0 244.032785 169.619818 169.619818 0 0 0 241.591078 0c34.459564-34.814005 39.539888-106.332368 37.7283-160.108979a742.593751 742.593751 0 0 0-12.267605-109.502647 700.139569 700.139569 0 0 0-127.382238-12.838649z m477.392949-128.268342a1063.815958 1063.815958 0 0 1-186.534541-18.5294v-0.118147a1070.589724 1070.589724 0 0 1-17.978047-158.789669 586.088259 586.088259 0 0 1 8.211222-129.961783 195.395572 195.395572 0 0 1 47.022536-102.394132 250.274888 250.274888 0 0 1 353.948947 353.948947c-37.098182 37.078491-105.938544 55.844184-204.670117 55.844184z m28.237151-404.122071a169.836421 169.836421 0 0 0-120.844767 50.035286c-34.498946 34.498946-39.57927 105.308427-37.767682 158.612449a732.846618 732.846618 0 0 0 12.306987 108.419633 715.892512 715.892512 0 0 0 127.40193 12.661428c67.481671 0 114.484516-12.759884 139.807372-38.003976a170.880053 170.880053 0 0 0-120.825075-291.705129z m-537.17537 402.9406c-77.051584-4.686501-132.08843-23.03868-163.594317-54.544566A250.235506 250.235506 0 0 1 427.214312 73.270484c31.505887 31.505887 49.858066 86.641189 54.564258 163.712464a174.207863 174.207863 0 0 0-41.548388-96.230793 211.699868 211.699868 0 0 0-299.305925 299.443763 172.908245 172.908245 0 0 0 96.092955 41.449932z" fill="#dbdbdb" p-id="4327"></path><path d="M773.719993 985.6022c-56.572758 0-109.778324-22.054121-149.810491-62.105979-31.663416-31.702799-47.337595-103.772515-44.108242-202.976675 1.732824-52.221007 8.270295-100.287176 12.799267-128.288033 32.451063-5.257545 91.83966-13.232472 153.473051-13.232473 41.193947 0 76.992511 3.544412 106.430823 10.475708 32.136005 7.600795 56.041096 19.061062 71.045775 34.06574a210.853147 210.853147 0 0 1 62.046906 149.987712c0 56.651523-22.054121 109.916162-62.046906 149.968021a210.439632 210.439632 0 0 1-149.830183 62.105979zM277.994556 445.039948c-41.174256 0-76.992511-3.524721-106.430824-10.475707-32.136005-7.600795-56.041096-19.061062-71.045775-34.06574a210.813765 210.813765 0 0 1-62.066596-149.968021c0-56.651523 22.054121-109.916162 62.066596-149.968021a210.439632 210.439632 0 0 1 149.810492-62.10598c56.592449 0 109.798015 22.054121 149.810492 62.10598 31.801254 31.820946 47.455742 104.264794 44.068859 204.000616a1041.80122 1041.80122 0 0 1-12.740193 127.244401c-32.431372 5.257545-91.819969 13.232472-153.473051 13.232472z" fill="#dbdbdb" p-id="4328"></path><path d="M773.719993 947.204401a172.297818 172.297818 0 0 0 122.656356-50.842625c67.658892-67.737657 67.658892-177.949187 0.019691-245.667152-7.797707-7.817398-41.705918-33.278093-150.322462-33.278093-44.4233 0-87.743895 4.332059-119.682988 8.624737a971.484019 971.484019 0 0 0-8.171839 94.753954c-4.332059 128.051739 24.062621 166.744906 32.844887 175.546863a172.278127 172.278127 0 0 0 122.676046 50.862316M277.974865 406.642149c44.403609 0 87.704512-4.332059 119.643605-8.624737 3.544412-26.405871 7.128207-60.589759 8.270295-96.742764 3.957927-126.515827-24.22015-164.854553-32.923652-173.577744a172.278127 172.278127 0 0 0-122.656355-50.842625 172.297818 172.297818 0 0 0-122.656356 50.842625c-67.658892 67.737657-67.658892 177.929496 0 245.64746 7.797707 7.817398 41.705918 33.297784 150.322463 33.297785M773.719993 1024a249.408476 249.408476 0 0 1-176.964628-73.369334c-97.727323-97.825778-37.255711-391.500026-37.255711-391.500025s293.457644-60.530685 391.204658 37.275402c97.727323 97.825778 97.727323 256.398845 0 354.244314a249.447859 249.447859 0 0 1-176.984319 73.349643zM277.994556 483.437748c-78.173982 0-160.955699-12.090384-204.650426-55.804802-97.727323-97.806087-97.727323-256.379154 0-354.224624 97.766705-97.806087 256.221624-97.806087 353.968638 0C525.020399 171.234101 464.568479 464.928039 464.568479 464.928039s-89.791777 18.509708-186.573923 18.509709z" fill="#dbdbdb" p-id="4329"></path></svg>