<?xml version="1.0" standalone="no"?><!DOCTYPE svg PUBLIC "-//W3C//DTD SVG 1.1//EN" "http://www.w3.org/Graphics/SVG/1.1/DTD/svg11.dtd"><svg t="1717677021117" class="icon" viewBox="0 0 1024 1024" version="1.1" xmlns="http://www.w3.org/2000/svg" p-id="3184" xmlns:xlink="http://www.w3.org/1999/xlink" width="200" height="200"><path d="M385.396364 55.854545a46.545455 46.545455 0 0 1 53.899636 23.738182 81.454545 81.454545 0 0 0 145.268364 0 46.545455 46.545455 0 0 1 53.899636-23.738182 472.482909 472.482909 0 0 1 195.630545 109.521455 46.545455 46.545455 0 0 1 10.053819 54.644364 81.454545 81.454545 0 0 0 73.122909 117.387636h1.117091a46.545455 46.545455 0 0 1 45.102545 32.581818c14.103273 44.916364 21.643636 92.625455 21.643636 141.963637 0 32.581818-3.258182 64.465455-9.588363 95.278545a46.545455 46.545455 0 0 1-50.176 37.003636 81.454545 81.454545 0 0 0-70.423273 133.538909 46.545455 46.545455 0 0 1-2.001454 62.277819 473.088 473.088 0 0 1-205.777455 125.533091 46.545455 46.545455 0 0 1-57.623273-30.440728 81.501091 81.501091 0 0 0-155.229091 0 46.545455 46.545455 0 0 1-57.623272 30.440728 473.088 473.088 0 0 1-205.730909-125.533091 46.545455 46.545455 0 0 1-2.048-62.277819 81.454545 81.454545 0 0 0-70.423273-133.538909 46.545455 46.545455 0 0 1-50.176-36.957091 475.136 475.136 0 0 1 12.101818-237.288727 46.545455 46.545455 0 0 1 45.056-32.581818h1.117091a81.454545 81.454545 0 0 0 73.122909-117.387636 46.545455 46.545455 0 0 1 10.053818-54.644364A472.529455 472.529455 0 0 1 385.442909 55.854545zM276.014545 213.876364a174.824727 174.824727 0 0 1-134.702545 213.178181 381.486545 381.486545 0 0 0-7.307636 125.85891 174.545455 174.545455 0 0 1 130.234181 247.38909 380.090182 380.090182 0 0 0 102.353455 63.022546 174.312727 174.312727 0 0 1 145.361455-77.870546c60.695273 0 114.036364 30.952727 145.314909 77.870546a380.090182 380.090182 0 0 0 102.4-63.022546 174.545455 174.545455 0 0 1 130.234181-247.435636 385.536 385.536 0 0 0-7.354181-125.812364 174.592 174.592 0 0 1-134.702546-213.178181 379.485091 379.485091 0 0 0-102.958545-58.181819 174.173091 174.173091 0 0 1-132.933818 61.486546 174.173091 174.173091 0 0 1-132.980364-61.44c-37.422545 13.963636-72.145455 33.698909-102.958546 58.181818z" p-id="3185" fill="#dbdbdb"></path><path d="M316.043636 512a195.863273 195.863273 0 1 1 391.773091 0 195.863273 195.863273 0 0 1-391.773091 0zM512 409.134545a102.772364 102.772364 0 1 0 0 205.591273 102.772364 102.772364 0 0 0 0-205.591273z" p-id="3186" fill="#dbdbdb"></path></svg>