<?xml version="1.0" standalone="no"?><!DOCTYPE svg PUBLIC "-//W3C//DTD SVG 1.1//EN" "http://www.w3.org/Graphics/SVG/1.1/DTD/svg11.dtd"><svg t="1718002585175" class="icon" viewBox="0 0 1024 1024" version="1.1" xmlns="http://www.w3.org/2000/svg" p-id="2969" xmlns:xlink="http://www.w3.org/1999/xlink" width="200" height="200"><path d="M803.4 909.4H219.3c-68.9 0-125-56.1-125-125V299.3c0-68.9 56.1-125 125-125h584.1c68.9 0 125 56.1 125 125v485.1c0 68.9-56.1 125-125 125zM219.3 224.2c-41.4 0-75 33.7-75 75v485.1c0 41.4 33.7 75 75 75h584.1c41.4 0 75-33.7 75-75v-485c0-41.4-33.7-75-75-75H219.3z" fill="#dbdbdb" p-id="2970"></path><path d="M392.3 527.5H229.7c-13.8 0-25-11.2-25-25s11.2-25 25-25h162.7c13.8 0 25 11.2 25 25-0.1 13.8-11.3 25-25.1 25zM317 657.5h-87.3c-13.8 0-25-11.2-25-25s11.2-25 25-25H317c13.8 0 25 11.2 25 25s-11.2 25-25 25zM324.1 272.6c-13.8 0-25-11.2-25-25V128c0-13.8 11.2-25 25-25s25 11.2 25 25v119.6c0 13.8-11.2 25-25 25zM696.1 272.6c-13.8 0-25-11.2-25-25V128c0-13.8 11.2-25 25-25s25 11.2 25 25v119.6c0 13.8-11.2 25-25 25zM619.6 590.5c-72.5 0-131.5-59-131.5-131.5s59-131.5 131.5-131.5 131.5 59 131.5 131.5-59 131.5-131.5 131.5z m0-213c-44.9 0-81.5 36.6-81.5 81.5s36.6 81.5 81.5 81.5 81.5-36.6 81.5-81.5-36.6-81.5-81.5-81.5z" fill="#dbdbdb" p-id="2971"></path><path d="M805.4 777c-13.8 0-25-11.2-25-25 0-88.7-72.1-160.8-160.8-160.8-88.7 0-160.8 72.1-160.8 160.8 0 13.8-11.2 25-25 25s-25-11.2-25-25c0-116.3 94.6-210.8 210.8-210.8 116.3 0 210.8 94.6 210.8 210.8 0 13.8-11.2 25-25 25zM392.3 389.5H229.7c-13.8 0-25-11.2-25-25s11.2-25 25-25h162.7c13.8 0 25 11.2 25 25s-11.3 25-25.1 25z" fill="#dbdbdb" p-id="2972"></path></svg>